<svg width="450" height="46" viewBox="0 0 450 46" fill="none" xmlns="http://www.w3.org/2000/svg">
<g clip-path="url(#clip0)">
<path fill-rule="evenodd" clip-rule="evenodd" d="M46.6064 40.1369C50.7147 33.6161 56.1884 28.0851 62.6416 23.9338C62.8086 23.827 62.9462 23.6792 63.0416 23.5042C63.1369 23.3291 63.1869 23.1326 63.1869 22.9328C63.1869 22.7331 63.1369 22.5365 63.0416 22.3615C62.9462 22.1865 62.8086 22.0387 62.6416 21.9319C56.1884 17.7805 50.7147 12.2496 46.6064 5.72877C46.5007 5.55997 46.3544 5.42094 46.1812 5.3246C46.008 5.22825 45.8135 5.17773 45.6158 5.17773C45.4181 5.17773 45.2236 5.22825 45.0505 5.3246C44.8773 5.42094 44.731 5.55997 44.6252 5.72877C40.5209 12.2528 35.0465 17.7846 28.5901 21.9319C28.4231 22.0387 28.2855 22.1865 28.1901 22.3615C28.0948 22.5365 28.0448 22.7331 28.0448 22.9328C28.0448 23.1326 28.0948 23.3291 28.1901 23.5042C28.2855 23.6792 28.4231 23.827 28.5901 23.9338C35.0465 28.0811 40.5209 33.6129 44.6252 40.1369C44.731 40.3057 44.8773 40.4447 45.0505 40.5411C45.2236 40.6374 45.4181 40.6879 45.6158 40.6879C45.8135 40.6879 46.008 40.6374 46.1812 40.5411C46.3544 40.4447 46.5007 40.3057 46.6064 40.1369Z" fill="#232526"/>
<path d="M33.3168 0.419813C33.3719 0.396945 33.4158 0.352894 33.4388 0.297351C33.4617 0.241809 33.4619 0.179324 33.4393 0.123644C33.4166 0.0679637 33.3731 0.0236485 33.3181 0.000447167C33.2631 -0.0227541 33.2013 -0.022941 33.1462 -7.23079e-05C26.5351 2.20776 20.4646 5.81158 15.3376 10.5721C13.312 12.3934 11.4589 14.4015 9.80213 16.5704C9.6589 16.7647 9.45356 16.903 9.22093 16.9618C8.9883 17.0205 8.74272 16.9962 8.52585 16.8928C3.98466 14.6659 1.48405 6.55315 0.445214 2.55673C0.426448 2.50634 0.390954 2.4641 0.344793 2.43722C0.298631 2.41033 0.244665 2.40047 0.19211 2.40932C0.139555 2.41817 0.0916701 2.44519 0.0566327 2.48575C0.0215954 2.52631 0.0015784 2.5779 0 2.63171C0.281775 9.99592 2.25788 17.1925 5.77158 23.6505C9.28527 30.1086 14.2399 35.6505 20.2424 39.8366C23.8574 42.3747 27.777 44.4382 31.907 45.9774C31.9592 46.0023 32.0189 46.0052 32.0732 45.9855C32.1001 45.9758 32.1248 45.9608 32.1459 45.9414C32.1671 45.922 32.1842 45.8985 32.1964 45.8725C32.2086 45.8464 32.2155 45.8181 32.2169 45.7893C32.2183 45.7605 32.214 45.7317 32.2044 45.7045C32.1947 45.6773 32.1799 45.6524 32.1607 45.631C32.1415 45.6097 32.1183 45.5923 32.0925 45.58C28.1593 43.2395 24.9187 39.8766 22.7079 35.8413C20.4972 31.8059 19.3971 27.2457 19.5221 22.635C19.6471 18.0243 20.9926 13.5318 23.4187 9.62481C25.8448 5.71784 29.2627 2.53926 33.3168 0.419813Z" fill="#232526"/>
<path d="M80.1385 17.0581C75.3972 10.7106 69.1952 5.62752 62.0702 2.2496C60.7052 1.57541 59.3057 0.974728 57.8778 0.450092C57.8192 0.429974 57.7554 0.432294 57.6984 0.456612C57.6415 0.48093 57.5953 0.525551 57.5687 0.581997C57.5422 0.638443 57.5371 0.702781 57.5544 0.762784C57.5717 0.822788 57.6102 0.874277 57.6626 0.907468C61.4888 3.1021 64.6891 6.25826 66.9532 10.0701C69.2174 13.8819 70.4687 18.2201 70.5859 22.6642C70.7031 27.1083 69.6822 31.5077 67.6221 35.4359C65.5621 39.3642 62.5327 42.688 58.8276 45.0855C58.7693 45.1163 58.7253 45.169 58.7048 45.2322C58.6844 45.2954 58.6892 45.3641 58.7183 45.4238C58.7473 45.4834 58.7983 45.5293 58.8603 45.5515C58.9223 45.5738 58.9904 45.5706 59.0502 45.5428C64.6952 43.2716 69.8885 39.9899 74.3804 35.8555C76.5016 33.9348 78.4303 31.8076 80.1385 29.5047C80.2763 29.3099 80.4799 29.1726 80.7108 29.1187C80.9417 29.0649 81.1842 29.0982 81.3926 29.2123C85.7482 31.6191 88.4418 39.1696 89.5548 42.971C89.5666 43.0297 89.601 43.0812 89.6504 43.1143C89.6998 43.1473 89.7602 43.1592 89.8182 43.1472C89.8763 43.1353 89.9273 43.1006 89.96 43.0506C89.9927 43.0007 90.0044 42.9397 89.9926 42.8811C89.2697 33.4867 85.8445 24.5109 80.1385 17.0581Z" fill="#232526"/>
</g>
<path d="M126.448 36.384C122.928 36.384 120.208 35.4347 118.288 33.536C116.368 31.6373 115.408 28.8 115.408 25.024C115.408 21.248 116.368 18.4107 118.288 16.512C120.208 14.6133 122.928 13.664 126.448 13.664C129.968 13.664 132.688 14.6133 134.608 16.512C136.549 18.4107 137.52 21.248 137.52 25.024C137.52 28.8 136.549 31.6373 134.608 33.536C132.688 35.4347 129.968 36.384 126.448 36.384ZM126.448 32.928C128.709 32.928 130.416 32.2987 131.568 31.04C132.741 29.76 133.328 27.872 133.328 25.376V24.704C133.328 22.208 132.741 20.32 131.568 19.04C130.395 17.76 128.688 17.12 126.448 17.12C124.229 17.12 122.533 17.76 121.36 19.04C120.187 20.32 119.6 22.208 119.6 24.704V25.376C119.6 27.872 120.176 29.76 121.328 31.04C122.501 32.2987 124.208 32.928 126.448 32.928ZM147.578 14.048H159.162C161.53 14.048 163.312 14.6347 164.506 15.808C165.722 16.9813 166.33 18.6133 166.33 20.704C166.33 22.1973 166 23.4773 165.338 24.544C164.677 25.5893 163.706 26.368 162.426 26.88L167.13 36H162.65L158.49 27.52H151.674V36H147.578V14.048ZM158.842 24.064C159.888 24.064 160.709 23.7653 161.306 23.168C161.904 22.5707 162.202 21.7493 162.202 20.704C162.202 19.7013 161.914 18.9227 161.338 18.368C160.762 17.8133 159.93 17.536 158.842 17.536H151.674V24.064H158.842ZM183.472 14.048H188.624L197.168 36H192.752L190.96 31.232H180.912L179.152 36H174.928L183.472 14.048ZM189.648 27.776L187.408 21.76C187.067 20.9067 186.704 19.8187 186.32 18.496C186.256 18.304 186.192 18.1333 186.128 17.984C186.085 17.8133 186.043 17.6747 186 17.568H185.84L185.52 18.56L184.432 21.76L182.192 27.776H189.648ZM215.732 36.384C212.276 36.384 209.641 35.456 207.828 33.6C206.015 31.744 205.108 28.8853 205.108 25.024C205.108 21.2267 206.025 18.3893 207.86 16.512C209.695 14.6133 212.319 13.664 215.732 13.664C217.609 13.664 219.273 13.984 220.724 14.624C222.175 15.2427 223.316 16.192 224.148 17.472C225.001 18.7307 225.428 20.288 225.428 22.144H221.236C221.236 20.544 220.735 19.3067 219.732 18.432C218.751 17.5573 217.439 17.12 215.796 17.12C213.599 17.12 211.967 17.7493 210.9 19.008C209.833 20.2667 209.3 22.1653 209.3 24.704V25.344C209.3 27.904 209.823 29.8133 210.868 31.072C211.935 32.3093 213.577 32.928 215.796 32.928C217.524 32.928 218.889 32.5013 219.892 31.648C220.895 30.7733 221.396 29.5467 221.396 27.968H225.428C225.428 30.72 224.532 32.8107 222.74 34.24C220.969 35.6693 218.633 36.384 215.732 36.384ZM244.714 36.384C241.77 36.384 239.487 35.6693 237.866 34.24C236.266 32.8107 235.466 30.688 235.466 27.872V14.048H239.562V27.776C239.562 29.4613 240.01 30.7413 240.906 31.616C241.802 32.4907 243.071 32.928 244.714 32.928C246.356 32.928 247.636 32.4907 248.554 31.616C249.471 30.7413 249.93 29.4613 249.93 27.776V14.048H254.026V27.872C254.026 30.688 253.215 32.8107 251.594 34.24C249.972 35.6693 247.679 36.384 244.714 36.384ZM264.96 14.048H269.056V32.448H280.704V36H264.96V14.048ZM290.297 14.048H294.393V32.448H306.041V36H290.297V14.048ZM324.883 36.384C321.939 36.384 319.656 35.6693 318.035 34.24C316.435 32.8107 315.635 30.688 315.635 27.872V14.048H319.731V27.776C319.731 29.4613 320.179 30.7413 321.075 31.616C321.971 32.4907 323.24 32.928 324.883 32.928C326.525 32.928 327.805 32.4907 328.723 31.616C329.64 30.7413 330.099 29.4613 330.099 27.776V14.048H334.195V27.872C334.195 30.688 333.384 32.8107 331.763 34.24C330.141 35.6693 327.848 36.384 324.883 36.384ZM345.128 14.048H351.432L355.24 27.136C355.496 28.032 355.838 29.4933 356.264 31.52H356.424C356.808 29.3653 357.107 27.904 357.32 27.136L361.16 14.048H367.24V36H363.144V21.824C363.144 21.2907 363.198 20.0533 363.304 18.112H363.112C362.942 18.8373 362.728 19.648 362.472 20.544L357.96 36H354.184L349.704 20.544C349.555 20.0533 349.406 19.4987 349.256 18.88L349.064 18.112H348.904C348.99 20.032 349.032 21.2693 349.032 21.824V36H345.128V14.048Z" fill="#232526"/>
<defs>
<clipPath id="clip0">
<rect width="90" height="46" fill="white"/>
</clipPath>
</defs>
</svg>
