<svg width="117" height="117" viewBox="0 0 117 117" fill="none" xmlns="http://www.w3.org/2000/svg">
<g clip-path="url(#clip0)">
<path fill-rule="evenodd" clip-rule="evenodd" d="M61.7089 115.025C75.2848 93.5506 93.5506 75.2848 115.025 61.7089C117.494 60.2278 117.494 56.7721 115.025 55.0443C93.5506 41.4684 75.2848 23.2025 61.7089 1.72785C60.2279 -0.740502 56.7722 -0.740502 55.0443 1.72785C41.4684 23.2025 23.2025 41.4684 1.72785 55.0443C-0.740502 56.5253 -0.740502 59.981 1.72785 61.7089C23.2025 75.2848 41.4684 93.5506 55.0443 115.025C56.7722 117.494 60.2279 117.494 61.7089 115.025Z" fill="#FBFBFB"/>
</g>
<g clip-path="url(#clip1)">
<path fill-rule="evenodd" clip-rule="evenodd" d="M59.2852 72.2838C62.5719 67.0388 66.9508 62.59 72.1133 59.2508C72.247 59.1649 72.357 59.046 72.4333 58.9052C72.5096 58.7645 72.5496 58.6064 72.5496 58.4457C72.5496 58.285 72.5096 58.1269 72.4333 57.9862C72.357 57.8454 72.247 57.7265 72.1133 57.6406C66.9508 54.3015 62.5719 49.8526 59.2852 44.6077C59.2006 44.4719 59.0836 44.36 58.9451 44.2826C58.8065 44.2051 58.6509 44.1644 58.4927 44.1644C58.3346 44.1644 58.179 44.2051 58.0404 44.2826C57.9019 44.36 57.7849 44.4719 57.7003 44.6077C54.4168 49.8552 50.0373 54.3047 44.8722 57.6406C44.7385 57.7265 44.6285 57.8454 44.5522 57.9862C44.4759 58.1269 44.4359 58.285 44.4359 58.4457C44.4359 58.6064 44.4759 58.7645 44.5522 58.9052C44.6285 59.046 44.7385 59.1649 44.8722 59.2508C50.0373 62.5867 54.4168 67.0362 57.7003 72.2838C57.7849 72.4195 57.9019 72.5314 58.0404 72.6089C58.179 72.6863 58.3346 72.727 58.4927 72.727C58.6509 72.727 58.8065 72.6863 58.9451 72.6089C59.0836 72.5314 59.2006 72.4195 59.2852 72.2838V72.2838Z" fill="#FD520F"/>
<path d="M48.6535 40.337C48.6976 40.3186 48.7326 40.2832 48.751 40.2385C48.7694 40.1938 48.7695 40.1436 48.7514 40.0988C48.7333 40.054 48.6984 40.0184 48.6545 39.9997C48.6105 39.981 48.561 39.9809 48.5169 39.9993C43.2281 41.7752 38.3716 44.6739 34.2701 48.503C32.6496 49.9679 31.1671 51.5832 29.8417 53.3277C29.7271 53.484 29.5628 53.5952 29.3767 53.6425C29.1906 53.6898 28.9942 53.6702 28.8207 53.5871C25.1877 51.7959 23.1872 45.2704 22.3562 42.0558C22.3412 42.0153 22.3128 41.9813 22.2758 41.9597C22.2389 41.9381 22.1957 41.9302 22.1537 41.9373C22.1116 41.9444 22.0733 41.9661 22.0453 41.9987C22.0173 42.0314 22.0013 42.0729 22 42.1162C22.2254 48.0395 23.8063 53.8281 26.6173 59.0226C29.4282 64.2171 33.3919 68.6747 38.1939 72.0418C41.0859 74.0834 44.2216 75.7431 47.5256 76.9812V76.9812C47.5673 77.0012 47.6151 77.0035 47.6586 76.9877C47.6801 76.9798 47.6998 76.9678 47.7167 76.9522C47.7336 76.9366 47.7474 76.9177 47.7571 76.8968C47.7669 76.8758 47.7724 76.853 47.7735 76.8299C47.7746 76.8067 47.7712 76.7835 47.7635 76.7617C47.7558 76.7398 47.7439 76.7197 47.7286 76.7026C47.7132 76.6854 47.6947 76.6714 47.674 76.6615C44.5274 74.7789 41.935 72.074 40.1664 68.8282C38.3978 65.5824 37.5177 61.9143 37.6177 58.2058C37.7177 54.4972 38.7941 50.8836 40.735 47.741C42.6758 44.5985 45.4102 42.0418 48.6535 40.337V40.337Z" fill="#FD520F"/>
<path d="M86.1108 53.7205C82.3177 48.6149 77.3561 44.5263 71.6561 41.8093C70.5641 41.267 69.4445 40.7839 68.3022 40.3619C68.2553 40.3457 68.2043 40.3476 68.1587 40.3671C68.1131 40.3867 68.0762 40.4226 68.0549 40.468C68.0337 40.5134 68.0296 40.5651 68.0435 40.6134C68.0573 40.6616 68.0881 40.7031 68.13 40.7298C71.191 42.495 73.7512 45.0337 75.5625 48.0997C77.3739 51.1657 78.3749 54.6551 78.4687 58.2297C78.5624 61.8043 77.7457 65.343 76.0977 68.5026C74.4496 71.6623 72.0261 74.3359 69.062 76.2642C69.0154 76.289 68.9802 76.3314 68.9638 76.3822C68.9475 76.4331 68.9513 76.4884 68.9746 76.5364C68.9978 76.5843 69.0386 76.6212 69.0882 76.6391C69.1378 76.657 69.1923 76.6545 69.2401 76.6321C73.7561 74.8052 77.9107 72.1656 81.5043 68.8401C83.2012 67.2952 84.7442 65.5842 86.1108 63.7319C86.221 63.5751 86.3838 63.4647 86.5686 63.4214C86.7533 63.3781 86.9473 63.4049 87.114 63.4967C90.5985 65.4326 92.7534 71.5058 93.6438 74.5635C93.6533 74.6107 93.6808 74.6521 93.7203 74.6787C93.7598 74.7053 93.8081 74.7148 93.8545 74.7052C93.901 74.6956 93.9418 74.6677 93.9679 74.6275C93.9941 74.5874 94.0035 74.5383 93.994 74.4911C93.4157 66.9348 90.6755 59.7151 86.1108 53.7205V53.7205Z" fill="#FD520F"/>
</g>
<defs>
<clipPath id="clip0">
<rect width="117" height="117" fill="white"/>
</clipPath>
<clipPath id="clip1">
<rect width="72" height="37" fill="white" transform="translate(22 40)"/>
</clipPath>
</defs>
</svg>
