<svg width="117" height="117" viewBox="0 0 117 117" fill="none" xmlns="http://www.w3.org/2000/svg">
<g clip-path="url(#clip0)">
<path fill-rule="evenodd" clip-rule="evenodd" d="M61.7089 115.025C75.2848 93.5505 93.5506 75.2847 115.025 61.7087C117.494 60.2277 117.494 56.772 115.025 55.0442C93.5506 41.4682 75.2848 23.2024 61.7089 1.72773C60.2279 -0.740624 56.7722 -0.740624 55.0443 1.72773C41.4684 23.2024 23.2025 41.4682 1.72785 55.0442C-0.740502 56.5252 -0.740502 59.9809 1.72785 61.7087C23.2025 75.2847 41.4684 93.5505 55.0443 115.025C56.7722 117.494 60.2279 117.494 61.7089 115.025Z" fill="#232526"/>
</g>
<g clip-path="url(#clip1)">
<path fill-rule="evenodd" clip-rule="evenodd" d="M59.2852 72.2839C62.5719 67.0389 66.9508 62.5901 72.1133 59.251C72.247 59.165 72.357 59.0461 72.4333 58.9054C72.5096 58.7646 72.5496 58.6065 72.5496 58.4458C72.5496 58.2851 72.5096 58.1271 72.4333 57.9863C72.357 57.8455 72.247 57.7266 72.1133 57.6407C66.9508 54.3016 62.5719 49.8528 59.2852 44.6078C59.2006 44.472 59.0836 44.3602 58.9451 44.2827C58.8065 44.2052 58.6509 44.1646 58.4927 44.1646C58.3346 44.1646 58.179 44.2052 58.0404 44.2827C57.9019 44.3602 57.7849 44.472 57.7003 44.6078C54.4168 49.8554 50.0373 54.3048 44.8722 57.6407C44.7385 57.7266 44.6285 57.8455 44.5522 57.9863C44.4759 58.1271 44.4359 58.2851 44.4359 58.4458C44.4359 58.6065 44.4759 58.7646 44.5522 58.9054C44.6285 59.0461 44.7385 59.165 44.8722 59.251C50.0373 62.5868 54.4168 67.0363 57.7003 72.2839C57.7849 72.4197 57.9019 72.5315 58.0404 72.609C58.179 72.6865 58.3346 72.7271 58.4927 72.7271C58.6509 72.7271 58.8065 72.6865 58.9451 72.609C59.0836 72.5315 59.2006 72.4197 59.2852 72.2839Z" fill="#28DF99"/>
<path d="M48.6535 40.337C48.6976 40.3186 48.7326 40.2832 48.751 40.2385C48.7694 40.1938 48.7695 40.1436 48.7514 40.0988C48.7333 40.054 48.6984 40.0184 48.6545 39.9997C48.6105 39.981 48.561 39.9809 48.5169 39.9993C43.2281 41.7752 38.3716 44.6739 34.2701 48.503C32.6496 49.9679 31.1671 51.5832 29.8417 53.3277C29.7271 53.484 29.5628 53.5952 29.3767 53.6425C29.1906 53.6898 28.9942 53.6702 28.8207 53.5871C25.1877 51.7959 23.1872 45.2704 22.3562 42.0558C22.3412 42.0153 22.3128 41.9813 22.2758 41.9597C22.2389 41.9381 22.1957 41.9302 22.1537 41.9373C22.1116 41.9444 22.0733 41.9661 22.0453 41.9987C22.0173 42.0314 22.0013 42.0729 22 42.1162C22.2254 48.0395 23.8063 53.8281 26.6173 59.0226C29.4282 64.2171 33.3919 68.6747 38.1939 72.0418C41.0859 74.0834 44.2216 75.7431 47.5256 76.9812C47.5673 77.0012 47.6152 77.0035 47.6586 76.9877C47.6801 76.9798 47.6998 76.9678 47.7167 76.9522C47.7336 76.9366 47.7474 76.9177 47.7571 76.8968C47.7669 76.8758 47.7724 76.853 47.7735 76.8299C47.7746 76.8067 47.7712 76.7835 47.7635 76.7617C47.7558 76.7398 47.7439 76.7197 47.7286 76.7026C47.7132 76.6854 47.6947 76.6714 47.674 76.6615C44.5274 74.7789 41.935 72.074 40.1664 68.8282C38.3978 65.5824 37.5177 61.9143 37.6177 58.2058C37.7177 54.4972 38.7941 50.8836 40.735 47.741C42.6758 44.5985 45.4102 42.0418 48.6535 40.337Z" fill="#28DF99"/>
<path d="M86.1108 53.7206C82.3177 48.615 77.3561 44.5264 71.6561 41.8094C70.5641 41.2671 69.4445 40.784 68.3022 40.362C68.2553 40.3458 68.2043 40.3477 68.1587 40.3672C68.1131 40.3868 68.0762 40.4227 68.0549 40.4681C68.0337 40.5135 68.0296 40.5652 68.0435 40.6135C68.0573 40.6618 68.0881 40.7032 68.13 40.7299C71.191 42.4951 73.7512 45.0338 75.5625 48.0998C77.3739 51.1658 78.3749 54.6552 78.4687 58.2298C78.5624 61.8045 77.7457 65.3431 76.0977 68.5028C74.4496 71.6624 72.0261 74.336 69.062 76.2643C69.0154 76.2892 68.9802 76.3315 68.9638 76.3823C68.9475 76.4332 68.9513 76.4885 68.9746 76.5365C68.9978 76.5845 69.0386 76.6213 69.0882 76.6392C69.1378 76.6571 69.1923 76.6546 69.2401 76.6322C73.7561 74.8054 77.9107 72.1658 81.5043 68.8402C83.2012 67.2953 84.7442 65.5843 86.1108 63.732C86.221 63.5753 86.3838 63.4649 86.5686 63.4216C86.7533 63.3782 86.9473 63.405 87.114 63.4968C90.5985 65.4327 92.7534 71.5059 93.6438 74.5636C93.6533 74.6108 93.6808 74.6522 93.7203 74.6788C93.7598 74.7054 93.8081 74.7149 93.8545 74.7053C93.901 74.6957 93.9418 74.6678 93.9679 74.6276C93.9941 74.5875 94.0035 74.5384 93.994 74.4912C93.4157 66.9349 90.6755 59.7152 86.1108 53.7206Z" fill="#28DF99"/>
</g>
<defs>
<clipPath id="clip0">
<rect width="117" height="117" fill="white"/>
</clipPath>
<clipPath id="clip1">
<rect width="72" height="37" fill="white" transform="translate(22 40)"/>
</clipPath>
</defs>
</svg>
